<svg class="logo" width="284pt" height="281pt" viewBox="0 0 284 281" version="1.1" xmlns="http://www.w3.org/2000/svg">
    <g>
        <path fill="#fff" opacity="1.00" d=" M 102.35 2.53 C 107.64 0.59 113.71 0.46 118.89 2.85 C 127.57 6.26 135.36 14.23 135.42 24.02 C 135.21 39.40 135.34 54.79 135.30 70.18 C 129.00 70.03 122.69 70.50 116.40 70.01 C 112.63 69.71 109.61 67.17 106.41 65.43 C 101.33 62.22 96.02 59.34 91.19 55.77 C 89.52 53.05 89.38 49.28 86.49 47.34 C 82.73 44.71 77.13 46.60 75.48 50.82 C 73.74 54.22 75.42 58.69 78.88 60.23 C 81.44 61.07 84.26 60.33 86.82 61.09 C 95.48 65.65 103.22 71.89 112.14 75.95 C 119.58 77.28 127.21 76.25 134.73 76.46 C 134.81 85.90 134.76 95.33 134.76 104.77 C 125.85 104.72 116.93 104.75 108.01 104.76 C 104.43 105.22 102.27 101.61 98.98 100.95 C 94.81 100.12 90.34 103.71 90.43 108.05 C 90.12 112.11 93.85 116.12 97.98 115.68 C 101.30 115.77 103.31 112.72 106.02 111.37 C 115.59 110.90 125.19 111.27 134.77 111.15 C 134.61 130.43 135.05 149.71 134.62 168.99 C 135.15 175.68 130.10 181.18 125.30 185.13 C 117.54 191.68 105.76 192.03 97.22 186.80 C 90.69 183.05 86.57 176.44 83.39 169.83 C 71.63 169.91 60.54 162.30 56.14 151.44 C 63.30 150.60 70.54 150.79 77.70 151.41 C 80.32 153.27 82.41 156.80 86.08 156.33 C 90.11 156.20 92.56 152.57 93.50 149.02 C 92.63 146.02 91.24 142.66 88.03 141.56 C 84.07 140.57 80.94 144.02 77.13 144.38 C 69.84 145.23 62.46 144.61 55.14 144.58 C 55.65 140.28 56.42 136.02 57.38 131.80 C 48.84 126.90 40.83 120.06 37.14 110.69 C 33.33 102.02 33.80 92.23 35.70 83.15 C 43.47 82.55 51.31 82.83 59.09 82.95 C 61.91 84.76 64.03 88.65 67.97 87.61 C 72.54 87.55 75.68 82.21 74.02 78.10 C 72.82 75.40 70.19 72.89 67.01 73.39 C 63.27 73.26 60.80 77.09 57.05 76.73 C 50.98 76.80 44.91 76.77 38.84 76.73 C 43.34 69.56 49.90 63.87 57.34 59.91 C 55.40 52.91 54.38 45.17 57.39 38.31 C 59.71 33.40 63.23 28.83 68.06 26.17 C 72.89 23.46 78.40 22.42 83.79 21.48 C 86.80 12.86 93.77 5.68 102.35 2.53 Z" />
        <path fill="#fff" opacity="1.00" d=" M 162.90 1.95 C 164.10 0.81 166.06 0.72 167.36 1.76 C 182.73 12.14 199.35 20.44 215.27 29.90 C 215.42 37.34 215.21 44.79 215.35 52.22 C 222.59 58.07 230.88 62.61 238.38 68.14 C 238.77 84.68 238.44 101.26 238.54 117.81 C 230.86 122.34 222.86 126.37 215.64 131.64 C 214.97 140.56 215.52 149.50 215.28 158.43 C 198.25 167.98 181.13 177.40 163.97 186.70 C 156.14 182.13 148.18 177.68 140.74 172.49 C 141.56 160.67 141.00 148.77 140.94 136.93 C 141.48 126.34 140.73 115.75 140.74 105.15 C 138.30 101.85 135.56 97.30 138.01 93.27 C 140.55 88.56 147.64 88.33 151.00 92.23 C 152.55 94.08 153.04 96.64 152.55 98.97 C 151.29 102.55 146.92 104.77 147.37 108.95 C 147.46 129.16 147.23 149.39 147.48 169.59 C 152.77 173.30 158.67 176.07 164.13 179.54 C 168.96 177.15 173.50 174.20 178.37 171.89 L 178.09 171.82 C 188.44 165.97 199.00 160.48 209.22 154.38 C 209.01 131.87 209.31 109.35 209.07 86.83 C 205.25 83.14 200.29 80.67 195.79 77.83 C 191.56 74.78 184.78 77.17 181.76 72.27 C 177.80 66.74 184.26 58.30 190.65 60.50 C 195.11 61.76 196.60 66.79 196.82 70.91 C 202.84 75.19 209.21 78.94 215.44 82.88 C 215.41 96.73 215.54 110.59 215.26 124.44 C 220.95 120.98 226.69 117.60 232.41 114.19 C 232.51 99.76 232.18 85.33 232.24 70.90 C 212.59 57.68 191.78 46.32 171.21 34.61 C 166.16 37.19 158.70 34.15 158.57 28.03 C 158.03 23.67 162.06 20.48 166.03 20.00 C 171.37 18.34 174.66 24.74 174.66 29.25 C 186.14 35.83 197.44 42.76 209.15 48.93 C 209.16 43.85 209.08 38.77 209.22 33.69 C 198.61 27.27 187.60 21.53 176.83 15.39 C 172.92 13.35 169.24 10.86 165.19 9.10 C 158.74 12.47 152.62 16.45 146.33 20.12 C 146.34 30.94 146.30 41.75 146.36 52.57 C 153.71 57.73 160.97 63.02 168.35 68.15 C 168.50 74.62 168.18 81.11 168.48 87.58 C 175.99 92.38 183.81 96.74 191.56 101.15 C 191.71 113.14 191.72 125.13 191.68 137.12 C 194.01 139.92 197.59 143.15 196.28 147.21 C 195.11 152.38 188.47 154.46 184.16 151.88 C 181.69 150.21 179.82 146.93 180.90 143.94 C 181.63 141.25 183.56 139.14 185.33 137.07 C 185.40 126.32 185.33 115.56 185.37 104.81 C 179.74 101.53 174.09 98.29 168.43 95.08 C 168.39 113.08 168.21 131.08 168.58 149.08 C 171.22 151.38 174.84 154.00 174.43 157.96 C 174.29 161.86 170.93 165.13 167.09 165.37 C 163.17 165.91 159.71 162.73 158.68 159.16 C 157.79 154.65 162.45 151.47 162.08 147.03 C 161.98 121.72 162.34 96.38 161.90 71.09 C 154.84 65.81 147.34 61.11 140.13 56.03 C 140.20 43.26 140.09 30.48 140.18 17.71 C 139.76 16.49 141.18 16.14 141.83 15.54 C 148.88 11.06 156.39 7.24 162.90 1.95 Z" />
        <path fill="#fff" opacity="1.00" d=" M 163.36 214.42 C 166.89 211.88 172.53 215.79 171.14 219.98 C 170.03 224.09 163.91 224.94 161.64 221.40 C 159.82 219.12 160.92 215.73 163.36 214.42 Z" />
        <path fill="#fff" opacity="1.00" d=" M 178.14 214.17 C 181.36 212.43 185.87 215.23 185.64 218.92 C 185.43 222.79 180.42 225.04 177.35 222.73 C 174.00 220.86 174.61 215.47 178.14 214.17 Z" />
        <path fill="#fff" opacity="1.00" d=" M 192.24 214.27 C 195.80 212.06 201.03 215.88 199.71 219.96 C 198.75 223.62 193.52 224.93 190.92 222.18 C 188.31 220.02 189.16 215.49 192.24 214.27 Z" />
        <path fill="#fff" opacity="1.00" d=" M 40.49 224.33 C 42.27 219.21 47.21 215.68 52.60 215.45 C 46.23 233.07 39.88 250.70 33.47 268.32 C 30.64 268.28 27.81 268.28 24.98 268.28 C 30.15 253.63 35.29 238.97 40.49 224.33 Z" />
        <path fill="#fff" opacity="1.00" d=" M 16.42 227.72 C 21.74 225.92 28.32 229.32 29.79 234.79 C 31.65 240.28 28.44 245.59 26.80 250.68 C 24.41 256.53 23.37 263.95 17.22 267.20 C 11.73 270.56 3.64 267.79 1.70 261.58 C -0.34 255.18 3.91 249.29 5.64 243.37 C 7.66 237.35 9.59 229.88 16.42 227.72 M 17.36 237.22 C 14.49 241.44 13.71 246.75 11.66 251.39 C 11.04 253.93 8.63 256.94 10.67 259.39 C 12.21 260.46 14.38 259.53 14.98 257.85 C 16.99 253.37 18.46 248.66 20.27 244.09 C 20.88 242.06 22.12 239.89 21.35 237.74 C 20.88 236.06 18.32 235.99 17.36 237.22 Z" />
        <path fill="#fff" opacity="1.00" d=" M 52.58 227.21 C 55.48 227.17 58.38 227.17 61.28 227.18 C 58.00 236.25 54.81 245.36 51.60 254.46 C 50.92 256.06 51.01 258.47 52.97 259.08 C 54.51 259.83 55.97 258.13 56.58 256.88 C 59.55 249.65 61.74 242.12 64.81 234.93 C 67.07 229.65 73.37 225.54 79.09 227.88 C 83.41 229.25 86.44 233.45 86.43 237.97 C 86.43 244.67 81.90 250.38 81.16 256.91 C 81.35 259.79 85.37 259.82 86.27 257.32 C 89.34 249.30 92.19 241.18 95.11 233.11 C 96.38 229.43 100.16 227.04 104.01 227.19 C 111.72 227.21 119.44 227.04 127.15 227.28 C 130.19 227.25 134.28 229.18 133.56 232.84 C 131.03 241.28 127.68 249.47 124.89 257.84 C 123.43 262.85 119.43 267.40 114.08 268.19 C 110.99 268.70 108.21 266.99 105.94 265.12 C 103.54 266.66 100.99 268.33 98.02 268.26 C 95.33 268.27 93.12 266.61 91.08 265.07 C 88.64 266.65 86.02 268.39 82.98 268.26 C 80.46 268.21 78.43 266.56 76.29 265.45 C 73.88 266.43 71.81 268.47 69.06 268.54 C 65.81 269.30 62.94 267.38 60.26 265.86 C 56.43 268.51 51.46 269.04 47.49 266.34 C 45.83 272.92 41.20 280.10 33.56 279.76 C 40.01 262.28 46.31 244.75 52.58 227.21 M 104.16 235.11 C 102.87 235.97 102.53 237.61 101.95 238.96 C 100.21 244.06 98.21 249.06 96.56 254.19 C 96.00 255.51 96.29 257.84 98.12 257.89 C 100.79 258.58 101.86 255.56 102.47 253.59 C 104.09 248.30 106.69 243.34 107.92 237.95 C 108.73 235.79 106.04 233.32 104.16 235.11 M 118.42 235.52 C 115.85 240.04 114.89 245.36 112.81 250.14 C 112.24 252.42 110.29 254.99 111.65 257.30 C 113.22 258.82 115.99 257.65 116.46 255.61 C 118.59 249.78 121.15 244.06 122.75 238.06 C 123.72 235.42 120.16 233.18 118.42 235.52 M 73.38 237.27 C 72.01 238.79 71.61 240.89 70.85 242.73 C 69.27 247.54 67.22 252.19 65.84 257.07 C 65.68 259.06 67.79 260.57 69.57 259.54 C 71.52 258.23 71.89 255.69 72.78 253.68 C 74.39 248.80 76.82 244.13 77.68 239.05 C 78.05 236.62 74.80 235.45 73.38 237.27 Z" />
        <path fill="#fff" opacity="1.00" d=" M 141.59 235.90 C 143.33 230.80 148.26 226.96 153.73 227.01 C 148.38 241.98 142.71 256.84 137.62 271.89 C 139.44 271.69 141.41 272.02 143.13 271.27 C 143.99 270.30 144.44 269.06 144.93 267.88 C 149.87 254.30 154.68 240.69 159.67 227.13 C 162.57 227.18 165.48 227.18 168.39 227.18 C 165.08 236.51 161.67 245.81 158.49 255.18 C 157.57 257.27 159.31 258.88 161.04 259.68 C 162.40 258.46 163.76 257.14 164.25 255.31 C 167.62 245.95 171.05 236.61 174.35 227.21 C 177.32 227.17 180.29 227.17 183.27 227.19 C 180.03 236.00 177.02 244.89 173.82 253.71 C 173.30 255.28 172.42 257.61 174.19 258.72 C 176.17 260.36 178.40 257.76 178.90 255.91 C 182.39 246.36 185.85 236.79 189.27 227.22 C 192.18 227.17 195.09 227.17 198.00 227.18 C 194.24 237.75 190.52 248.34 186.79 258.92 C 185.22 263.63 181.13 267.62 176.09 268.22 C 173.12 268.62 170.48 266.93 168.31 265.13 C 164.36 268.25 158.86 269.44 154.51 266.34 C 152.81 271.77 149.94 277.90 143.87 279.38 C 137.98 280.06 132.01 279.52 126.10 279.69 C 131.31 265.11 136.39 250.48 141.59 235.90 Z" />
        <path fill="#fff" opacity="1.00" d=" M 206.10 228.05 C 211.68 225.48 218.97 229.18 220.45 235.08 C 221.33 238.45 220.68 241.99 219.39 245.16 C 216.05 253.96 213.09 262.91 209.76 271.71 C 207.92 276.55 203.09 279.62 198.02 279.98 C 199.21 276.29 200.55 272.66 201.79 268.99 C 198.58 267.98 194.94 266.81 193.19 263.67 C 191.19 260.43 191.23 256.33 192.63 252.87 C 194.61 247.63 196.63 242.40 198.39 237.08 C 199.65 233.22 202.28 229.66 206.10 228.05 M 208.17 236.97 C 206.44 238.56 206.05 241.05 205.18 243.15 C 203.69 247.83 201.53 252.30 200.39 257.08 C 199.85 260.56 205.06 260.61 205.68 257.60 C 207.92 251.80 210.33 246.03 212.05 240.05 C 213.10 237.77 210.11 235.08 208.17 236.97 Z" />
        <path fill="#fff" opacity="1.00" d=" M 229.91 227.17 C 232.80 227.17 235.70 227.17 238.60 227.20 C 235.19 236.42 231.96 245.72 228.73 255.00 C 227.68 257.06 229.43 258.73 231.00 259.74 C 232.50 258.58 234.01 257.29 234.51 255.38 C 237.92 246.01 241.33 236.64 244.63 227.23 C 247.58 227.17 250.54 227.17 253.50 227.18 C 250.12 236.47 246.83 245.78 243.59 255.12 C 242.57 257.20 244.40 258.78 246.01 259.73 C 247.38 258.57 248.81 257.37 249.32 255.58 C 252.73 246.13 256.15 236.69 259.50 227.23 C 262.45 227.17 265.39 227.17 268.34 227.17 C 264.96 236.49 261.68 245.85 258.42 255.21 C 257.52 257.07 258.89 259.47 261.06 259.28 C 262.84 258.62 263.66 256.85 264.25 255.19 C 267.62 245.86 271.05 236.56 274.32 227.20 C 277.23 227.17 280.14 227.17 283.06 227.19 C 279.26 237.95 275.45 248.71 271.65 259.47 C 269.90 264.29 265.29 268.22 260.04 268.26 C 257.47 268.25 255.46 266.55 253.38 265.30 C 250.93 266.33 248.74 268.19 245.96 268.26 C 243.12 268.45 240.66 266.84 238.60 265.08 C 234.60 268.23 229.15 269.35 224.71 266.36 C 223.39 270.15 222.14 274.30 218.87 276.92 C 216.67 278.84 213.77 279.55 210.95 279.95 C 217.08 262.29 223.66 244.79 229.91 227.17 Z" />
    </g>
</svg>